<svg width="112" height="98" viewBox="0 0 112 98" fill="none" xmlns="http://www.w3.org/2000/svg">
<path d="M27.4023 97.2247C12.2684 74.1269 18.7245 43.1339 41.8224 28L83.6448 0.597667V0.597667C98.7787 23.6955 92.3226 54.6885 69.2247 69.8224L27.4023 97.2247V97.2247Z" fill="#66CC00"/>
<path d="M27.5395 97.4338C13.5407 76.0682 19.5126 47.3997 40.8781 33.4009L79.5638 8.05372V8.05372C93.5626 29.4192 87.5908 58.0877 66.2253 72.0866L27.5395 97.4338V97.4338Z" fill="#6DD900"/>
<path d="M27.2651 97.0152C14.7797 77.9594 20.1059 52.3903 39.1617 39.9048L73.6651 17.2979V17.2979C86.1506 36.3536 80.8243 61.9228 61.7686 74.4083L27.2651 97.0152V97.0152Z" fill="#72E300"/>
<path d="M27.2651 97.0146C16.2931 80.2686 20.9737 57.7987 37.7197 46.8267L68.0409 26.96V26.96C79.013 43.7059 74.3323 66.1758 57.5864 77.1479L27.2651 97.0146V97.0146Z" fill="#76E902"/>
<path d="M27.5395 97.4339C18.0809 82.9977 22.1159 63.6271 36.5521 54.1685L62.6911 37.042V37.042C72.1498 51.4782 68.1147 70.8488 53.6785 80.3075L27.5395 97.4339V97.4339Z" fill="#79F100"/>
<path d="M27.5395 97.4333C19.5943 85.3069 22.9837 69.0356 35.1101 61.0903L57.0668 46.7041V46.7041C65.0121 58.8305 61.6227 75.1018 49.4963 83.0471L27.5395 97.4333V97.4333Z" fill="#7EFC00"/>
</svg>
