<svg width="100" height="100" viewBox="0 0 100 100" fill="none" xmlns="http://www.w3.org/2000/svg">
<g clip-path="url(#clip0_884_222)">
<path d="M65.2439 50.0347V60.1973V85.6038C65.2439 89.3301 62.1951 92.3788 58.4689 92.3788H27.9811V7.69043H58.4689C62.1951 7.69043 65.2439 10.7392 65.2439 14.4654V50.0347Z" fill="#FFEAEA"/>
<path d="M27.9811 7.69001V92.3784V94.0721C27.9811 97.7983 25.2712 100 22.0529 98.8146L5.96204 92.3782C2.06631 91.0231 0.880737 89.3294 0.880737 85.6032V14.465C0.880737 10.7388 2.23582 9.04489 5.96204 7.69001L22.0529 1.25363C25.271 0.0680601 27.9811 2.26989 27.9811 5.99611V7.69001Z" fill="#FA0E0E"/>
<path d="M23.7465 100C23.0691 100 22.3914 99.8307 21.714 99.6612L5.62312 93.225C1.55808 91.7006 0.0336914 89.6681 0.0336914 85.603V14.4648C0.0336914 10.3998 1.55808 8.36725 5.62312 6.84286L21.714 0.406475C23.4077 -0.270965 25.1016 -0.101655 26.4565 0.914606C27.9808 1.93087 28.8278 3.79408 28.8278 5.99591V94.0717C28.8278 96.2736 27.9808 98.1368 26.4565 99.153C25.779 99.6611 24.7628 100 23.7465 100ZM23.7465 1.76156C23.2384 1.76156 22.7302 1.93087 22.2221 2.10037L6.13145 8.53656C2.57454 9.89164 1.55828 11.2465 1.55828 14.4648V85.603C1.55828 88.9906 2.57454 90.3455 6.13145 91.5313L22.2223 97.9676C23.4079 98.4758 24.5936 98.3065 25.4404 97.7983C26.4567 97.1209 26.9648 95.7658 26.9648 94.0721V5.99591C26.9648 4.30221 26.4567 2.94713 25.4404 2.26969C25.1016 1.93087 24.4241 1.76156 23.7465 1.76156ZM58.4688 93.225H34.756C34.2479 93.225 33.9091 92.8861 33.9091 92.378C33.9091 91.8699 34.2479 91.5311 34.756 91.5311H58.4688C61.6869 91.5311 64.3971 88.8211 64.3971 85.6028V60.1963C64.3971 59.6882 64.7359 59.3494 65.244 59.3494C65.7522 59.3494 66.091 59.6882 66.091 60.1963V85.6028C66.0908 89.8374 62.7032 93.225 58.4688 93.225ZM82.1814 67.8185C82.0121 67.8185 81.6733 67.8185 81.504 67.6492C81.1652 67.3103 81.1652 66.8022 81.504 66.4636L96.9172 51.0504H38.1436C37.6355 51.0504 37.2967 50.7116 37.2967 50.2034C37.2967 49.6953 37.6355 49.3565 38.1436 49.3565H97.0867L81.6735 33.9433C81.3347 33.6044 81.3347 33.0963 81.6735 32.7577C82.0123 32.4189 82.5205 32.4189 82.8591 32.7577L99.7967 49.6953C99.7967 49.6953 99.966 49.8646 99.966 50.0341C99.966 50.2034 99.966 50.2034 99.966 50.3729C99.966 50.5422 99.966 50.5422 99.966 50.7118C99.966 50.8811 99.7967 50.8811 99.7967 50.8811L82.8591 67.8187C82.6896 67.649 82.351 67.8185 82.1814 67.8185ZM21.2058 55.962C20.6977 55.962 20.3589 55.6231 20.3589 55.115V44.9524C20.3589 44.4443 20.6977 44.1055 21.2058 44.1055C21.714 44.1055 22.0528 44.4443 22.0528 44.9524V55.115C22.0528 55.6231 21.714 55.962 21.2058 55.962ZM65.2438 40.7181C64.7357 40.7181 64.3969 40.3792 64.3969 39.8711V14.4646C64.3969 11.2465 61.6869 8.53636 58.4686 8.53636H34.5865C34.0784 8.53636 33.7396 8.19754 33.7396 7.68941C33.7396 7.18128 34.0784 6.84246 34.5865 6.84246H58.4686C62.703 6.84246 66.0906 10.2301 66.0906 14.4644V39.8709C66.0908 40.3792 65.752 40.7181 65.2438 40.7181Z" fill="#000815"/>
</g>
<defs>
<clipPath id="clip0_884_222">
<rect width="100" height="100" fill="white"/>
</clipPath>
</defs>
</svg>
