<?xml version="1.0" encoding="iso-8859-1"?>
<!-- Uploaded to: SVG Repo, www.svgrepo.com, Generator: SVG Repo Mixer Tools -->
<svg height="800px" width="800px" version="1.1" id="Layer_1" xmlns="http://www.w3.org/2000/svg" xmlns:xlink="http://www.w3.org/1999/xlink" 
	 viewBox="0 0 500 500" xml:space="preserve">
<g>
	<path style="fill:#71B735;" d="M250.8,146.4C250,146.4,250,146.4,250.8,146.4c-18.4-3.2-33.6-13.6-43.2-30.4C198,100,194,80,198,60
		c0-2.4,2.4-4,4.8-3.2c2.4,0,4,2.4,3.2,4.8c-3.2,18.4,0,36,8.8,50.4s21.6,24,36.8,26.4c2.4,0,4,2.4,3.2,4.8
		C254,144.8,252.4,146.4,250.8,146.4z"/>
	<path style="fill:#71B735;" d="M243.6,170.4c-17.6,0-35.2-7.2-49.6-20c-16-15.2-26.4-36-28.8-59.2c0-2.4,1.6-4,3.2-4.8
		c2.4,0,4,1.6,4.8,3.2c2.4,21.6,12,40.8,26.4,54.4s32.8,20,50.4,17.6c2.4,0,4,1.6,4.8,3.2c0,2.4-1.6,4-3.2,4.8
		C249.2,170.4,246.8,170.4,243.6,170.4z"/>
	<path style="fill:#71B735;" d="M226.8,199.2c-38.4,0-76.8-28.8-90.4-72.8c-0.8-2.4,0.8-4,2.4-4.8c2.4-0.8,4,0.8,4.8,2.4
		c16,48.8,62.4,77.6,104,64c2.4-0.8,4,0.8,4.8,2.4c0.8,2.4-0.8,4-2.4,4.8C242.8,198.4,234.8,199.2,226.8,199.2z"/>
	<path style="fill:#71B735;" d="M211.6,231.2c-12,0-24-2.4-36-7.2c-25.6-10.4-46.4-30.4-60-56.8c-0.8-1.6,0-4,1.6-5.6
		c1.6-0.8,4,0,5.6,1.6c12.8,24,32,43.2,56,52.8c23.2,9.6,47.2,8.8,68-1.6c1.6-0.8,4,0,5.6,1.6s0,4-1.6,5.6
		C238,228,225.2,231.2,211.6,231.2z"/>
	<path style="fill:#71B735;" d="M191.6,269.6c-32.8,0-67.2-15.2-92.8-44c-1.6-1.6-1.6-4,0-5.6s4-1.6,5.6,0
		c40,45.6,104.8,55.2,144,20.8c1.6-1.6,4-1.6,5.6,0s1.6,4,0,5.6C236.4,262.4,214.8,269.6,191.6,269.6z"/>
	<path style="fill:#71B735;" d="M176.4,310.4c-20.8,0-43.2-6.4-63.2-19.2c-1.6-1.6-2.4-4-0.8-5.6s4-2.4,5.6-0.8
		c45.6,29.6,102.4,21.6,127.2-16.8c1.6-1.6,4-2.4,5.6-0.8s2.4,4,0.8,5.6C235.6,297.6,206.8,310.4,176.4,310.4z"/>
	<path style="fill:#71B735;" d="M175.6,352c-11.2,0-23.2-1.6-35.2-6.4c-2.4-0.8-3.2-3.2-2.4-4.8c0.8-2.4,3.2-3.2,4.8-2.4
		c43.2,15.2,89.6-1.6,103.2-39.2c0.8-2.4,3.2-3.2,4.8-2.4c2.4,0.8,3.2,3.2,2.4,4.8C242.8,332.8,210.8,352,175.6,352z"/>
	<path style="fill:#71B735;" d="M179.6,391.2c-4,0-8,0-12-0.8c-2.4,0-4-2.4-3.2-4.8c0-2.4,2.4-4,4.8-3.2
		c18.4,2.4,36.8-1.6,51.2-10.4c14.4-9.6,23.2-23.2,25.6-38.4c0-2.4,2.4-4,4.8-3.2c2.4,0,4,2.4,3.2,4.8c-2.4,17.6-12.8,33.6-28.8,44
		C211.6,387.2,196.4,391.2,179.6,391.2z"/>
	<path style="fill:#71B735;" d="M250,118.4c-0.8,0-0.8,0-1.6,0c-11.2-5.6-20-15.2-23.2-28c-4-12.8-2.4-27.2,4-40
		c0-2.4,2.4-3.2,4.8-2.4s3.2,3.2,1.6,5.6c-4.8,11.2-6.4,23.2-3.2,34.4c3.2,10.4,9.6,19.2,19.2,23.2c2.4,0.8,3.2,3.2,1.6,5.6
		C252.4,117.6,251.6,118.4,250,118.4z"/>
	<path style="fill:#71B735;" d="M249.2,146.4c-1.6,0-4-1.6-4-3.2c0-2.4,0.8-4,3.2-4.8c15.2-2.4,28-12,36.8-26.4s12-32.8,8.8-50.4
		c0-2.4,0.8-4,3.2-4.8c2.4,0,4,0.8,4.8,3.2c3.2,20,0,40-9.6,56C282.8,132.8,267.6,143.2,249.2,146.4
		C250,146.4,250,146.4,249.2,146.4z"/>
	<path style="fill:#71B735;" d="M256.4,170.4c-2.4,0-4.8,0-8-0.8c-2.4,0-4-2.4-3.2-4.8c0-2.4,2.4-4,4.8-3.2c18.4,2.4,36-4,50.4-17.6
		s24-32.8,26.4-54.4c0-2.4,2.4-4,4.8-3.2c2.4,0,4,2.4,3.2,4.8c-2.4,23.2-12.8,44.8-28.8,59.2C290.8,163.2,274,170.4,256.4,170.4z"/>
	<path style="fill:#71B735;" d="M273.2,199.2c-8,0-16-0.8-23.2-4c-2.4-0.8-3.2-3.2-2.4-4.8c0.8-2.4,3.2-3.2,4.8-2.4
		c41.6,13.6,88-15.2,104-64c0.8-2.4,3.2-3.2,4.8-2.4c2.4,0.8,3.2,3.2,2.4,4.8C349.2,170.4,311.6,199.2,273.2,199.2z"/>
	<path style="fill:#71B735;" d="M288.4,231.2c-13.6,0-26.4-3.2-38.4-8.8c-1.6-0.8-2.4-3.2-1.6-5.6c0.8-1.6,3.2-2.4,5.6-1.6
		c20.8,10.4,44.8,11.2,68,1.6c23.2-9.6,43.2-28,56-52.8c0.8-1.6,3.2-2.4,5.6-1.6s2.4,3.2,1.6,5.6c-13.6,26.4-34.4,46.4-60,56.8
		C312.4,228.8,300.4,231.2,288.4,231.2z"/>
	<path style="fill:#71B735;" d="M308.4,269.6c-22.4,0-44.8-7.2-62.4-22.4c-1.6-1.6-1.6-4,0-5.6s4-1.6,5.6,0
		c39.2,34.4,103.2,24.8,144-20.8c1.6-1.6,4-1.6,5.6,0s1.6,4,0,5.6C375.6,254.4,341.2,269.6,308.4,269.6z"/>
	<path style="fill:#71B735;" d="M323.6,310.4c-30.4,0-59.2-12.8-75.2-38.4c-1.6-1.6-0.8-4,0.8-5.6s4-0.8,5.6,0.8
		c24.8,38.4,82.4,45.6,127.2,16.8c1.6-0.8,4-0.8,5.6,0.8c1.6,1.6,0.8,4-0.8,5.6C366.8,304,344.4,310.4,323.6,310.4z"/>
	<path style="fill:#71B735;" d="M324.4,352c-35.2,0-67.2-19.2-78.4-50.4c-0.8-2.4,0-4,2.4-4.8s4,0,4.8,2.4
		c13.6,36.8,59.2,54.4,103.2,39.2c2.4-0.8,4,0,4.8,2.4s0,4-2.4,4.8C347.6,349.6,335.6,352,324.4,352z"/>
	<path style="fill:#71B735;" d="M320.4,391.2c-16,0-31.2-4-44.8-12.8c-16-10.4-26.4-26.4-28.8-44c0-2.4,1.6-4,3.2-4.8
		c2.4,0,4,1.6,4.8,3.2c2.4,15.2,11.2,28.8,25.6,38.4s32.8,12.8,51.2,10.4c2.4,0,4,1.6,4.8,3.2c0,2.4-1.6,4-3.2,4.8
		C328.4,391.2,324.4,391.2,320.4,391.2z"/>
	<path style="fill:#71B735;" d="M250,118.4c-1.6,0-3.2-0.8-4-2.4c-0.8-2.4,0-4,1.6-5.6c9.6-4,16-12.8,19.2-23.2
		c3.2-11.2,1.6-23.2-3.2-34.4c-0.8-2.4,0-4,1.6-5.6c2.4-0.8,4,0,5.6,1.6c5.6,12.8,7.2,27.2,4,40c-4,12.8-12,23.2-23.2,28
		C251.6,118.4,250.8,118.4,250,118.4z"/>
</g>
<path style="fill:#02243E;" d="M250,500c-2.4,0-4-1.6-4-4V40.8c0-2.4,1.6-4,4-4s4,1.6,4,4V496C254,498.4,252.4,500,250,500z"/>
<circle style="fill:#ED7C8A;" cx="250" cy="20.8" r="20.8"/>
<path style="fill:#DD586F;" d="M250,0c11.2,0,20.8,9.6,20.8,20.8s-9.6,20.8-20.8,20.8"/>
<g>
	
		<ellipse transform="matrix(-0.5852 -0.8109 0.8109 -0.5852 377.254 208.5907)" style="fill:#F4A6B4;" cx="241.978" cy="7.805" rx="3.2" ry="7.2"/>
	<path style="fill:#F4A6B4;" d="M236.4,16c0,0.8-0.8,1.6-1.6,1.6s-1.6-0.8-1.6-1.6c0-0.8,0.8-1.6,1.6-1.6
		C235.6,14.4,236.4,15.2,236.4,16z"/>
</g>
</svg>